<svg width="913" height="589" viewBox="0 0 913 589" fill="none" xmlns="http://www.w3.org/2000/svg">
<path d="M366.761 537.951C360.096 538.129 353.496 536.601 347.587 533.513L95.4124 387.923C93.1947 386.899 91.2955 385.294 89.9162 383.278C88.5369 381.262 87.729 378.911 87.5781 376.473C87.5781 371.131 91.5774 365.762 98.5351 361.736L579.463 84.1137C592.529 76.5808 612.334 75.896 623.757 82.3058L875.931 227.924C880.999 230.827 883.765 234.881 883.765 239.346C883.765 244.825 879.766 250.084 872.808 254.111L391.825 531.705C384.139 535.888 375.512 538.038 366.761 537.951ZM348.052 532.472C359.009 538.855 378.485 537.951 391.25 530.664L872.233 253.097C878.89 249.262 882.697 244.222 882.697 239.264C882.697 235.21 879.958 231.485 875.383 228.773L623.209 83.1824C612.252 76.7999 592.776 77.7039 580.011 84.9902L99.0281 362.667C92.3992 366.502 88.5916 371.542 88.5916 376.363C88.5916 380.445 91.3309 384.17 95.9054 386.882L348.052 532.472Z" fill="#42E8E0"/>
<path d="M883.221 172.023L847.008 178.269L623.486 49.223C612.255 42.731 592.67 43.5527 579.658 51.0309L152.09 297.919L88.0742 308.875V331.584C88.0742 335.72 90.4847 339.801 95.6071 342.541L347.782 488.159C358.985 494.623 378.571 493.802 391.609 486.323L872.51 208.784C879.495 204.757 883.084 199.635 883.193 194.731L883.221 172.023Z" fill="url(#paint0_linear_2001_845)"/>
<path d="M347.808 465.422L95.5788 319.831C84.3479 313.366 85.7723 302.053 98.7015 294.575L579.739 16.8984C592.669 9.42031 612.254 8.68072 623.567 15.0632L875.659 160.818C886.863 167.283 885.466 178.596 872.509 186.074L391.554 463.614C378.597 471.092 359.011 471.886 347.808 465.422Z" fill="#24126A"/>
<path d="M872.51 185.935L391.554 463.612C378.598 471.09 359.012 471.829 347.727 465.419L95.5797 319.829C93.6875 318.914 92.0313 317.576 90.7393 315.918C89.4472 314.26 88.5541 312.327 88.129 310.269C87.4442 314.926 89.8547 319.473 95.5797 322.76L347.754 468.378C358.958 474.842 378.543 474.021 391.582 466.542L872.51 188.866C880.262 184.401 883.851 178.539 883.084 173.17C882.426 177.662 879.002 182.264 872.51 185.935Z" fill="white"/>
<path opacity="0.51" d="M348.3 459.774L105.11 319.333C94.1535 313.06 95.6327 302.131 108.151 294.899L580.177 22.4271C592.723 15.1955 611.678 14.4011 622.525 20.674L865.715 161.115C876.672 167.388 875.22 178.345 862.674 185.576L390.649 458.021C378.103 465.253 359.148 466.047 348.3 459.774Z" fill="#2D4F6E"/>
<path style="mix-blend-mode:lighten" opacity="0.8" d="M366.756 458.493C360.237 458.688 353.776 457.207 347.992 454.192L104.803 313.751C102.618 312.733 100.748 311.145 99.3886 309.154C98.0293 307.164 97.2312 304.844 97.0781 302.438C97.0781 297.179 100.995 291.892 107.843 287.948L579.787 15.4756C592.524 8.13442 611.863 7.25787 622.903 13.7225L866.092 154.191C868.277 155.202 870.147 156.784 871.507 158.771C872.867 160.757 873.665 163.074 873.817 165.476C873.817 170.736 869.9 176.022 863.052 179.994L391.026 452.439C383.576 456.471 375.227 458.553 366.756 458.493ZM348.787 452.823C359.388 458.958 378.015 458.164 390.314 451.069L862.285 178.625C868.612 174.954 872.255 170.16 872.255 165.476C872.095 163.351 871.368 161.307 870.149 159.558C868.93 157.809 867.264 156.419 865.325 155.533L622.136 15.0921C611.507 8.95619 592.88 9.61361 580.581 16.8452L108.528 289.317C102.2 292.961 98.5573 297.754 98.5573 302.438C98.7174 304.564 99.4448 306.608 100.664 308.357C101.883 310.106 103.549 311.496 105.488 312.382L348.787 452.823Z" fill="url(#paint1_linear_2001_845)"/>
<g opacity="0.3">
<path style="mix-blend-mode:lighten" opacity="0.5" d="M348.292 453.499L105.103 313.058C94.1457 306.786 95.6249 295.856 108.143 288.624L580.169 16.1523C592.715 8.92072 611.67 8.15373 622.518 14.3992L865.707 154.84C876.664 161.113 875.212 172.07 862.667 179.301L390.641 451.746C378.095 458.978 359.14 459.772 348.292 453.499Z" fill="url(#paint2_radial_2001_845)"/>
<mask id="mask0_2001_845" style="mask-type:luminance" maskUnits="userSpaceOnUse" x="97" y="10" width="777" height="448">
<path d="M348.288 453.495L105.099 313.055C94.1418 306.782 95.621 295.852 108.139 288.621L580.165 16.1484C592.711 8.91681 611.666 8.14983 622.514 14.3953L865.703 154.836C876.66 161.109 875.208 172.066 862.663 179.298L390.637 451.742C378.091 458.974 359.136 459.768 348.288 453.495Z" fill="white"/>
</mask>
<g mask="url(#mask0_2001_845)">
<path d="M703.951 316.559L700.444 316.093C700.048 315.816 699.636 315.56 699.212 315.326L428.63 159.19C421.617 155.163 409.455 155.656 401.237 160.313L243.485 251.365C241.623 252.37 239.984 253.739 238.663 255.392L236.801 254.844V260.322C236.916 261.77 237.412 263.161 238.24 264.355C239.068 265.548 240.197 266.501 241.512 267.116L512.122 423.252C519.107 427.306 531.296 426.786 539.514 422.129L697.377 330.995C701.896 328.256 704.142 325.023 704.033 321.873L703.951 316.559Z" fill="#9FFFF8"/>
<path d="M512.124 417.858L241.515 261.721C234.53 257.667 235.406 250.627 243.487 245.971L401.349 154.809C409.43 150.152 421.62 149.659 428.742 153.686L699.324 309.822C706.336 313.849 705.46 320.779 697.379 325.573L539.325 416.735C531.326 421.392 519.109 421.912 512.124 417.858Z" fill="#42E8E0"/>
<path d="M333.694 275.555L300.275 256.381C297.18 254.6 297.536 251.45 301.152 249.395C302.993 248.367 305.05 247.784 307.158 247.694C309.265 247.604 311.364 248.008 313.287 248.875L346.678 268.187C349.801 269.967 349.417 273.09 345.829 275.172C343.977 276.178 341.914 276.737 339.807 276.804C337.7 276.871 335.606 276.443 333.694 275.555Z" fill="white"/>
<path d="M395.35 311.138L361.931 291.963C358.808 290.155 359.192 287.033 362.808 284.951C364.651 283.927 366.709 283.349 368.817 283.263C370.924 283.177 373.022 283.587 374.942 284.458L408.334 303.632C411.456 305.44 411.073 308.563 407.457 310.645C405.616 311.662 403.563 312.237 401.462 312.322C399.36 312.408 397.267 312.002 395.35 311.138Z" fill="white"/>
<path d="M456.981 346.723L423.59 327.549C420.467 325.768 420.851 322.618 424.439 320.564C426.281 319.535 428.337 318.952 430.445 318.862C432.552 318.772 434.651 319.176 436.574 320.043L469.993 339.218C473.088 341.026 472.732 344.148 469.116 346.23C467.274 347.26 465.216 347.842 463.108 347.928C460.999 348.013 458.9 347.601 456.981 346.723Z" fill="white"/>
<path d="M518.647 382.331L485.229 363.157C482.133 361.349 482.489 358.226 486.105 356.144C487.947 355.114 490.005 354.532 492.114 354.447C494.222 354.361 496.321 354.774 498.24 355.651L531.659 374.826C534.754 376.606 534.398 379.756 530.782 381.811C528.941 382.839 526.884 383.422 524.776 383.512C522.669 383.603 520.57 383.198 518.647 382.331Z" fill="white"/>
</g>
</g>
<path opacity="0.4" d="M813.782 178.157C811.701 179.224 809.396 179.78 807.057 179.78C804.718 179.78 802.413 179.224 800.332 178.157C796.634 176.02 796.634 172.541 800.332 170.405C802.417 169.35 804.721 168.801 807.057 168.801C809.393 168.801 811.697 169.35 813.782 170.405C817.48 172.541 817.48 176.02 813.782 178.157Z" fill="#24126A"/>
<path opacity="0.4" d="M762.474 140.789L788.771 155.964C792.003 157.827 791.51 161.059 787.894 163.223C785.987 164.279 783.861 164.876 781.683 164.966C779.505 165.056 777.336 164.638 775.349 163.744L749.024 148.541C745.82 146.678 746.285 143.446 749.928 141.309C751.831 140.241 753.959 139.638 756.139 139.547C758.319 139.457 760.49 139.882 762.474 140.789Z" fill="#24126A"/>
<path opacity="0.4" d="M614.584 53.5741L640.908 68.7769C644.112 70.6396 643.647 73.8719 640.004 76.0085C638.101 77.0766 635.973 77.6804 633.793 77.7708C631.613 77.8613 629.443 77.4358 627.458 76.5289L601.134 61.3535C597.929 59.4909 598.395 56.2586 602.038 54.0946C603.945 53.0389 606.071 52.4422 608.249 52.3519C610.427 52.2616 612.596 52.68 614.584 53.5741Z" fill="#24126A"/>
<path d="M813.782 168.735C811.697 169.789 809.393 170.338 807.057 170.338C804.721 170.338 802.417 169.789 800.332 168.735C796.634 166.598 796.634 163.256 800.332 160.983C802.417 159.928 804.721 159.379 807.057 159.379C809.393 159.379 811.697 159.928 813.782 160.983C817.48 163.119 817.48 166.598 813.782 168.735Z" fill="#42E8E0"/>
<path d="M762.474 131.344L788.771 146.546C792.003 148.409 791.51 151.641 787.894 153.778C785.992 154.846 783.864 155.45 781.684 155.54C779.504 155.631 777.333 155.205 775.349 154.298L749.024 139.123C745.82 137.26 746.285 134.028 749.928 131.864C751.835 130.808 753.962 130.212 756.14 130.121C758.318 130.031 760.486 130.45 762.474 131.344Z" fill="#42E8E0"/>
<path d="M614.584 44.1502L640.908 59.353C644.112 61.1883 643.647 64.448 640.004 66.5846C638.099 67.6464 635.972 68.2466 633.793 68.337C631.614 68.4274 629.444 68.0055 627.458 67.1051L601.134 51.9023C597.929 50.067 598.395 46.8073 602.038 44.6707C603.943 43.6088 606.07 43.0086 608.249 42.9182C610.428 42.8278 612.597 43.2498 614.584 44.1502Z" fill="#42E8E0"/>
<g opacity="0.3">
<path d="M140.942 548.121V535.849L137.545 533.959C136.586 539.766 129.765 543.574 124.068 544.368L85.2528 567.076L68.1874 573.185L14.2244 545.272L15.457 544.56C10.8551 542.396 8.3624 537.465 5.8423 532.945L2.22648 535.137L0.0625 535.739V548.34C0.191521 549.766 0.698646 551.133 1.53164 552.298C2.36463 553.463 3.49334 554.385 4.80137 554.969L58.9835 586.251C62.5486 588.06 66.4903 589.003 70.4883 589.003C74.4863 589.003 78.428 588.06 81.9931 586.251L136.175 554.969C137.464 554.384 138.58 553.477 139.415 552.335C140.25 551.193 140.776 549.854 140.942 548.449V548.121Z" fill="url(#paint3_linear_2001_845)"/>
<path opacity="0.3" d="M124.064 544.313L85.2489 567.021L70.4844 572.336V588.935C74.4905 589.021 78.4517 588.078 81.9892 586.196L136.171 554.914C137.46 554.329 138.576 553.422 139.411 552.28C140.246 551.138 140.772 549.8 140.938 548.395V548.066V535.794L137.842 534.068H137.514C136.445 539.821 129.707 543.573 124.064 544.313Z" fill="#0F054C"/>
<path d="M58.9787 573.786L4.79651 542.504C-1.53113 538.833 -1.53113 532.861 4.79651 529.218L58.9787 497.936C62.5438 496.127 66.4854 495.184 70.4835 495.184C74.4815 495.184 78.4231 496.127 81.9883 497.936L136.17 529.218C142.525 532.861 142.525 538.833 136.17 542.504L81.8787 573.786C78.324 575.565 74.4037 576.491 70.4287 576.491C66.4537 576.491 62.5334 575.565 58.9787 573.786Z" fill="url(#paint4_linear_2001_845)"/>
<g opacity="0.3">
<path d="M58.9787 573.786L4.79651 542.504C-1.53113 538.833 -1.53113 532.861 4.79651 529.218L58.9787 497.936C62.5438 496.127 66.4854 495.184 70.4835 495.184C74.4815 495.184 78.4231 496.127 81.9883 497.936L136.17 529.218C142.525 532.861 142.525 538.833 136.17 542.504L81.8787 573.786C78.324 575.565 74.4037 576.491 70.4287 576.491C66.4537 576.491 62.5334 575.565 58.9787 573.786Z" fill="#0F054C"/>
</g>
</g>
<path d="M70.489 528.26C66.9387 528.341 63.4279 527.501 60.299 525.822L6.11687 494.54C4.83413 494.097 3.72138 493.266 2.9337 492.161C2.14601 491.056 1.72266 489.733 1.72266 488.376C1.72266 487.019 2.14601 485.696 2.9337 484.592C3.72138 483.487 4.83413 482.655 6.11687 482.213L60.3264 450.931C63.4877 449.324 66.9838 448.486 70.5301 448.486C74.0764 448.486 77.5725 449.324 80.7338 450.931L134.916 482.213C136.199 482.655 137.311 483.487 138.099 484.592C138.887 485.696 139.31 487.019 139.31 488.376C139.31 489.733 138.887 491.056 138.099 492.161C137.311 493.266 136.199 494.097 134.916 494.54L80.7338 525.822C77.5855 527.502 74.0568 528.342 70.489 528.26ZM70.489 449.424C67.1018 449.356 63.7536 450.158 60.7647 451.753L6.58253 483.035C5.37215 483.311 4.29135 483.989 3.51719 484.96C2.74302 485.93 2.32141 487.135 2.32141 488.376C2.32141 489.618 2.74302 490.822 3.51719 491.793C4.29135 492.763 5.37215 493.442 6.58253 493.718L60.7647 525.137C63.78 526.676 67.1173 527.478 70.5027 527.478C73.8881 527.478 77.2253 526.676 80.2407 525.137L134.423 493.855C135.633 493.579 136.714 492.9 137.488 491.93C138.262 490.959 138.684 489.755 138.684 488.513C138.684 487.272 138.262 486.067 137.488 485.097C136.714 484.126 135.633 483.448 134.423 483.172L80.2407 451.753C77.2432 450.154 73.8853 449.352 70.489 449.424Z" fill="#42E8E0"/>
<path opacity="0.4" d="M140.945 476.376V457.804L137.549 455.914C136.59 461.721 129.769 465.529 124.072 466.323L85.2567 489.031L68.1913 495.14L14.2283 467.254L15.4609 466.515C10.859 464.351 8.3663 459.42 5.8462 454.928L2.23039 457.092L0.0664062 457.694V476.568C0.192621 477.995 0.698661 479.363 1.53199 480.528C2.36533 481.694 3.49555 482.615 4.80528 483.197L58.9874 514.479C62.5526 516.288 66.4942 517.231 70.4922 517.231C74.4902 517.231 78.4319 516.288 81.997 514.479L136.179 483.197C137.468 482.612 138.583 481.705 139.418 480.563C140.253 479.421 140.779 478.082 140.945 476.677V476.376Z" fill="#42E8E0"/>
<path d="M140.945 459.886V447.587L137.549 445.697C136.59 451.504 129.769 455.312 124.072 456.106L85.2567 478.814L68.1913 484.95L14.2283 457.038L15.4609 456.298C10.859 454.134 8.3663 449.203 5.8462 444.711L2.23039 446.875L0.0664062 447.478V460.078C0.192621 461.505 0.698661 462.873 1.53199 464.039C2.36533 465.204 3.49555 466.126 4.80528 466.707L58.9874 497.989C62.5526 499.799 66.4942 500.742 70.4922 500.742C74.4902 500.742 78.4319 499.799 81.997 497.989L136.179 466.707C137.468 466.123 138.583 465.215 139.418 464.073C140.253 462.931 140.779 461.593 140.945 460.188V459.859V459.886Z" fill="url(#paint5_linear_2001_845)"/>
<path d="M140.945 459.886V447.587L137.549 445.697C136.59 451.504 129.769 455.312 124.072 456.106L85.2567 478.814L68.1913 484.95L14.2283 457.038L15.4609 456.298C10.859 454.134 8.3663 449.203 5.8462 444.711L2.23039 446.875L0.0664062 447.478V460.078C0.192621 461.505 0.698661 462.873 1.53199 464.039C2.36533 465.204 3.49555 466.126 4.80528 466.707L58.9874 497.989C62.5526 499.799 66.4942 500.742 70.4922 500.742C74.4902 500.742 78.4319 499.799 81.997 497.989L136.179 466.707C137.468 466.123 138.583 465.215 139.418 464.073C140.253 462.931 140.779 461.593 140.945 460.188V459.859V459.886Z" fill="url(#paint6_linear_2001_845)"/>
<path opacity="0.3" d="M124.072 456.106L85.2567 478.814L70.4922 484.293V500.892C74.4982 500.977 78.4591 500.034 81.997 498.153L136.179 466.871C137.468 466.287 138.583 465.379 139.418 464.237C140.253 463.095 140.779 461.757 140.945 460.352V460.023V447.724L137.85 445.998H137.521C136.453 451.586 129.715 455.339 124.072 456.106Z" fill="#0F054C"/>
<path d="M58.9865 485.522L4.80433 454.24C-1.52332 450.569 -1.52332 444.625 4.80433 440.955L58.9865 409.672C62.5516 407.863 66.4932 406.92 70.4913 406.92C74.4893 406.92 78.4309 407.863 81.9961 409.672L136.178 440.955C142.533 444.625 142.533 450.569 136.178 454.24L81.8865 485.522C78.3356 487.313 74.4138 488.247 70.4365 488.247C66.4592 488.247 62.5374 487.313 58.9865 485.522Z" fill="url(#paint7_linear_2001_845)"/>
<path d="M70.4889 479.854C67.2809 479.921 64.1102 479.157 61.285 477.636L18.8816 453.202C17.7244 452.791 16.7228 452.032 16.0144 451.029C15.3061 450.026 14.9258 448.828 14.9258 447.6C14.9258 446.372 15.3061 445.174 16.0144 444.171C16.7228 443.168 17.7244 442.409 18.8816 441.998L61.2303 417.564C64.0837 416.105 67.2428 415.344 70.4478 415.344C73.6528 415.344 76.8119 416.105 79.6654 417.564L122.014 441.998C123.171 442.409 124.173 443.168 124.881 444.171C125.59 445.174 125.97 446.372 125.97 447.6C125.97 448.828 125.59 450.026 124.881 451.029C124.173 452.032 123.171 452.791 122.014 453.202L79.6654 477.636C76.8452 479.144 73.6867 479.908 70.4889 479.854ZM70.4889 416.277C67.444 416.223 64.436 416.949 61.7507 418.386L19.4021 442.957C18.386 443.278 17.4986 443.914 16.8687 444.774C16.2388 445.633 15.8993 446.671 15.8993 447.737C15.8993 448.802 16.2388 449.84 16.8687 450.7C17.4986 451.559 18.386 452.196 19.4021 452.517L61.7233 476.951C64.4348 478.329 67.4335 479.048 70.4752 479.048C73.5169 479.048 76.5156 478.329 79.2271 476.951L121.548 452.517C122.564 452.196 123.452 451.559 124.082 450.7C124.712 449.84 125.051 448.802 125.051 447.737C125.051 446.671 124.712 445.633 124.082 444.774C123.452 443.914 122.564 443.278 121.548 442.957L79.1449 418.304C76.4761 416.91 73.4988 416.213 70.4889 416.277Z" fill="#5351AF"/>
<path d="M136.176 454.241L81.8841 485.523C78.319 487.333 74.3773 488.276 70.3793 488.276C66.3813 488.276 62.4396 487.333 58.8745 485.523L4.69234 454.241C3.51393 453.682 2.47912 452.86 1.66721 451.839C0.855296 450.819 0.287813 449.626 0.00822397 448.352C-0.0644322 449.92 0.345725 451.472 1.18336 452.8C2.02099 454.127 3.24579 455.166 4.69234 455.775L58.8745 487.057C62.4396 488.866 66.3813 489.809 70.3793 489.809C74.3773 489.809 78.319 488.866 81.8841 487.057L136.066 455.775C137.52 455.173 138.753 454.137 139.596 452.809C140.44 451.48 140.852 449.923 140.778 448.352C140.509 449.618 139.955 450.807 139.157 451.828C138.36 452.848 137.34 453.674 136.176 454.241Z" fill="white"/>
<g opacity="0.3">
<path d="M209.234 181.99V169.718L205.838 167.828C204.879 173.608 198.058 177.443 192.361 178.237L153.546 200.918L136.672 207.054L82.5994 179.141L83.8321 178.429C79.2028 176.265 76.7374 171.307 74.2173 166.814L70.5741 168.978L68.4102 169.581V182.182C68.5535 183.611 69.0691 184.978 69.9054 186.146C70.7417 187.313 71.8695 188.242 73.1764 188.838L127.359 220.12C130.928 221.917 134.868 222.853 138.863 222.853C142.859 222.853 146.799 221.917 150.368 220.12L204.55 188.838C205.842 188.251 206.961 187.34 207.796 186.192C208.631 185.045 209.155 183.701 209.317 182.291V181.99H209.234Z" fill="url(#paint8_linear_2001_845)"/>
<path opacity="0.3" d="M192.349 178.239L153.534 200.92L138.77 206.398V222.998C142.774 223.067 146.731 222.125 150.274 220.259L204.457 188.976C205.749 188.39 206.867 187.478 207.702 186.331C208.537 185.184 209.061 183.84 209.223 182.43V182.128V169.857L206.127 168.131H205.799C204.73 173.692 197.992 177.444 192.349 178.239Z" fill="#0F054C"/>
<path d="M127.269 207.629L73.0866 176.347C66.7316 172.677 66.7316 166.733 73.0866 163.062L127.269 131.78C130.834 129.97 134.776 129.027 138.774 129.027C142.772 129.027 146.713 129.97 150.278 131.78L204.461 163.062C210.816 166.733 210.816 172.704 204.461 176.347L150.361 207.629C146.785 209.452 142.828 210.403 138.815 210.403C134.801 210.403 130.845 209.452 127.269 207.629Z" fill="url(#paint9_linear_2001_845)"/>
<g opacity="0.3">
<path d="M127.269 207.629L73.0866 176.347C66.7316 172.677 66.7316 166.733 73.0866 163.062L127.269 131.78C130.834 129.97 134.776 129.027 138.774 129.027C142.772 129.027 146.713 129.97 150.278 131.78L204.461 163.062C210.816 166.733 210.816 172.704 204.461 176.347L150.361 207.629C146.785 209.452 142.828 210.403 138.815 210.403C134.801 210.403 130.845 209.452 127.269 207.629Z" fill="#0F054C"/>
</g>
</g>
<path d="M138.777 168.209C135.22 168.274 131.705 167.435 128.56 165.771L74.3776 134.489C73.098 134.04 71.9895 133.204 71.2054 132.098C70.4212 130.991 70 129.668 70 128.312C70 126.956 70.4212 125.633 71.2054 124.527C71.9895 123.42 73.098 122.585 74.3776 122.135L128.45 90.8532C131.616 89.2459 135.117 88.4082 138.668 88.4082C142.218 88.4082 145.719 89.2459 148.885 90.8532L203.067 122.135C204.347 122.585 205.455 123.42 206.239 124.527C207.024 125.633 207.445 126.956 207.445 128.312C207.445 129.668 207.024 130.991 206.239 132.098C205.455 133.204 204.347 134.04 203.067 134.489L148.995 165.771C145.85 167.435 142.334 168.274 138.777 168.209ZM138.777 89.3466C135.389 89.2745 132.04 90.0764 129.053 91.6749L74.8707 122.957C73.7457 123.331 72.767 124.049 72.0734 125.01C71.3797 125.972 71.0064 127.127 71.0064 128.312C71.0064 129.498 71.3797 130.653 72.0734 131.614C72.767 132.575 73.7457 133.294 74.8707 133.667L129.053 164.95C132.072 166.476 135.408 167.271 138.791 167.271C142.174 167.271 145.51 166.476 148.529 164.95L202.711 133.667C203.836 133.294 204.815 132.575 205.508 131.614C206.202 130.653 206.575 129.498 206.575 128.312C206.575 127.127 206.202 125.972 205.508 125.01C204.815 124.049 203.836 123.331 202.711 122.957L148.529 91.6749C145.531 90.0764 142.173 89.2747 138.777 89.3466Z" fill="#42E8E0"/>
<path opacity="0.4" d="M209.23 116.306V97.8158L205.834 95.9257C204.875 101.706 198.054 105.54 192.357 106.335L153.542 129.016L136.668 135.097L82.5955 107.184L83.8282 106.444C79.1989 104.308 76.7335 99.3498 74.2134 94.8574L70.5702 97.0214L68.4062 97.6241V116.497C68.5496 117.927 69.0652 119.293 69.9015 120.461C70.7378 121.629 71.8656 122.558 73.1725 123.154L127.355 154.436C130.924 156.233 134.864 157.169 138.859 157.169C142.855 157.169 146.795 156.233 150.364 154.436L204.546 123.154C205.839 122.567 206.957 121.656 207.792 120.508C208.627 119.361 209.151 118.017 209.313 116.607V116.306H209.23Z" fill="#42E8E0"/>
<path d="M209.23 99.814V87.5423L205.834 85.6522C204.875 91.432 198.054 95.2669 192.357 96.0613L153.542 118.742L136.668 124.878L82.5955 96.9652L83.8282 96.253C79.1989 94.089 76.7335 89.131 74.2134 84.6387L70.5702 86.8027L68.4062 87.4053V100.006C68.5496 101.435 69.0652 102.802 69.9015 103.97C70.7378 105.138 71.8656 106.066 73.1725 106.662L127.355 137.944C130.924 139.741 134.864 140.677 138.859 140.677C142.855 140.677 146.795 139.741 150.364 137.944L204.546 106.662C205.839 106.075 206.957 105.164 207.792 104.017C208.627 102.869 209.151 101.525 209.313 100.115V99.814H209.23Z" fill="url(#paint10_linear_2001_845)"/>
<path opacity="0.3" d="M192.361 96.0629L153.546 118.744L138.781 124.222V140.822C142.786 140.891 146.743 139.949 150.286 138.083L204.468 106.801C205.76 106.214 206.879 105.302 207.714 104.155C208.549 103.008 209.073 101.664 209.234 100.254V99.9526V87.6808L206.139 85.9551H205.81C204.742 91.5157 198.004 95.2685 192.361 96.0629Z" fill="#469EDE"/>
<path d="M127.265 125.452L73.0827 94.1695C66.7276 90.4989 66.7276 84.5548 73.0827 80.8842L127.265 49.6021C130.83 47.7926 134.772 46.8496 138.77 46.8496C142.768 46.8496 146.709 47.7926 150.274 49.6021L204.457 80.8842C210.812 84.5548 210.812 90.5263 204.457 94.1695L150.357 125.452C146.781 127.275 142.824 128.225 138.811 128.225C134.797 128.225 130.841 127.275 127.265 125.452Z" fill="url(#paint11_linear_2001_845)"/>
<path d="M138.778 119.726C135.561 119.789 132.383 119.025 129.546 117.507L87.3621 93.1278C86.2049 92.717 85.2033 91.958 84.4949 90.9549C83.7866 89.9518 83.4062 88.754 83.4062 87.5261C83.4062 86.2981 83.7866 85.1003 84.4949 84.0972C85.2033 83.0941 86.2049 82.335 87.3621 81.9243L129.683 57.4903C132.546 56.0456 135.708 55.293 138.915 55.293C142.121 55.293 145.283 56.0456 148.146 57.4903L190.467 81.9243C191.624 82.335 192.626 83.0941 193.334 84.0972C194.043 85.1003 194.423 86.2981 194.423 87.5261C194.423 88.754 194.043 89.9518 193.334 90.9549C192.626 91.958 191.624 92.717 190.467 93.1278L148.146 117.562C145.264 119.083 142.035 119.829 138.778 119.726ZM138.778 56.1755C135.735 56.11 132.726 56.8268 130.039 58.2573L87.6908 82.6913C86.6747 83.0123 85.7873 83.6487 85.1574 84.5083C84.5276 85.3678 84.188 86.4056 84.188 87.4713C84.188 88.5369 84.5276 89.5748 85.1574 90.4343C85.7873 91.2938 86.6747 91.9302 87.6908 92.2512L130.039 116.685C132.751 118.064 135.75 118.782 138.791 118.782C141.833 118.782 144.832 118.064 147.543 116.685L189.864 92.3334C190.816 91.9199 191.639 91.2602 192.251 90.4225C192.862 89.5847 193.239 88.5991 193.343 87.5671C193.236 86.5329 192.858 85.5452 192.247 84.7037C191.636 83.8621 190.814 83.1963 189.864 82.7735L147.625 58.3121C144.905 56.8679 141.857 56.1508 138.778 56.2302V56.1755Z" fill="#5351AF"/>
<path d="M204.465 94.1706L150.365 125.453C146.8 127.262 142.859 128.205 138.861 128.205C134.863 128.205 130.921 127.262 127.356 125.453L73.1736 94.1706C71.9956 93.6141 70.9594 92.7973 70.1432 91.7818C69.3271 90.7663 68.7522 89.5787 68.4621 88.3086C68.4052 89.8737 68.8252 91.4191 69.6667 92.7399C70.5081 94.0608 71.7312 95.0947 73.1736 95.7046L127.356 126.987C130.921 128.796 134.863 129.739 138.861 129.739C142.859 129.739 146.8 128.796 150.365 126.987L204.548 95.7046C205.992 95.0979 207.218 94.0647 208.059 92.7431C208.901 91.4215 209.32 89.8744 209.259 88.3086C208.964 89.5883 208.378 90.7829 207.547 91.7995C206.715 92.8161 205.661 93.6275 204.465 94.1706Z" fill="white"/>
<path opacity="0.4" d="M502.818 343.987L292.609 222.611C287.131 219.489 287.87 214.01 294.116 210.394L416.752 139.585C423.024 135.969 432.53 135.586 437.953 138.708L648.163 260.084C653.641 263.207 652.901 268.685 646.629 272.301L523.993 343.11C517.72 346.726 508.242 347.082 502.818 343.987Z" fill="#24126A"/>
<path d="M703.962 165.689L700.456 165.224L699.224 164.429L428.641 8.29261C421.629 4.23854 409.467 4.75901 401.249 9.41571L243.496 100.55C241.639 101.573 240.001 102.95 238.675 104.604L236.812 104.056V109.535C236.928 110.983 237.424 112.374 238.252 113.567C239.079 114.76 240.208 115.713 241.524 116.328L512.133 272.465C519.119 276.492 531.308 275.999 539.526 271.342L697.388 180.18C701.908 177.578 704.154 174.236 704.045 171.086L703.962 165.689Z" fill="#9FFFF8"/>
<path d="M512.136 266.988L241.526 110.852C234.541 106.825 235.418 99.8949 243.499 95.1012L401.361 3.85711C409.442 -0.7996 421.632 -1.32004 428.754 2.73403L699.336 158.871C706.348 162.925 705.472 169.965 697.391 174.621L539.337 265.865C531.338 270.522 519.121 271.015 512.136 266.988Z" fill="#42E8E0"/>
<path d="M555.795 256.384L259.875 85.538L291.294 67.4043L587.214 238.251L555.795 256.384Z" fill="#24126A"/>
<g opacity="0.1">
<path d="M694.844 501.958C694.844 471.389 716.292 434.244 742.726 418.987C755.984 411.344 767.982 410.632 776.665 415.672L785.704 420.986L782.965 421.233C787.731 427.068 790.525 435.696 790.525 446.653C790.525 477.223 769.077 514.367 742.616 529.625C733.522 534.884 725.03 536.856 717.799 535.952L717.99 538.39L708.814 532.912H708.677L708.321 532.693C700.021 527.598 694.844 516.915 694.844 501.958Z" fill="#9FFFF8"/>
<path d="M785.767 499.183C804.473 466.783 804.471 431.761 785.762 420.959C767.053 410.157 736.722 427.666 718.015 460.067C699.309 492.467 699.311 527.489 718.02 538.291C736.729 549.092 767.06 531.583 785.767 499.183Z" fill="#42E8E0"/>
</g>
<path opacity="0.2" d="M748.771 571.838C706.861 571.838 664.923 562.606 633.011 544.171C601.976 526.284 584.91 502.425 584.91 477.06C584.91 451.695 601.976 427.754 633.011 409.921C696.863 373.078 800.735 373.078 864.586 409.921C895.595 427.836 912.688 451.667 912.688 477.06C912.688 502.453 895.595 526.366 864.586 544.171C832.647 562.606 790.709 571.838 748.771 571.838ZM748.771 383.214C706.998 383.214 665.252 392.39 633.449 410.743C602.77 428.493 585.896 452.023 585.896 477.06C585.896 502.097 602.825 525.627 633.532 543.349C697.109 580.055 800.625 580.055 864.148 543.349C894.855 525.627 911.784 502.069 911.784 477.06C911.784 452.051 894.883 428.493 864.148 410.743C832.428 392.39 790.545 383.214 748.799 383.214H748.771Z" fill="#42E8E0"/>
<path d="M748.806 536.091C722.756 536.091 696.76 530.366 676.873 518.916C657.699 507.795 646.961 492.948 646.961 477.143C646.961 461.337 657.589 446.491 676.901 435.342C716.538 412.469 780.992 412.469 820.711 435.342C839.885 446.491 850.623 461.337 850.623 477.143C850.623 492.948 839.995 507.795 820.711 518.916C800.879 530.284 774.911 536.091 748.806 536.091ZM748.806 419.126C722.92 419.126 697.062 424.796 677.367 436.164C658.384 447.121 647.92 461.693 647.92 477.252C647.92 492.811 658.384 507.247 677.367 518.204C716.757 540.967 780.827 540.967 820.218 518.204C839.228 507.247 849.665 492.702 849.665 477.252C849.665 461.803 839.228 447.121 820.218 436.164C800.523 424.714 774.664 419.044 748.806 419.044V419.126Z" fill="#42E8E0"/>
<mask id="mask1_2001_845" style="mask-type:luminance" maskUnits="userSpaceOnUse" x="673" y="304" width="151" height="204">
<path d="M673.812 489.854L703.917 507.193L823.813 437.973V304.846L673.812 391.46V489.854Z" fill="white"/>
</mask>
<g mask="url(#mask1_2001_845)">
<path d="M694.844 501.966C694.844 471.396 716.292 434.252 742.726 418.995C755.984 411.352 767.982 410.64 776.665 415.68L785.704 420.994L782.965 421.241C787.731 427.075 790.525 435.704 790.525 446.661C790.525 477.231 769.077 514.375 742.616 529.633C733.522 534.892 725.03 536.864 717.799 535.96L717.99 538.398L708.814 532.92H708.677L708.321 532.701C700.021 527.606 694.844 516.922 694.844 501.966Z" fill="#9FFFF8"/>
<path d="M785.767 499.191C804.473 466.791 804.471 431.769 785.762 420.967C767.053 410.165 736.722 427.674 718.015 460.074C699.309 492.475 699.311 527.497 718.02 538.298C736.729 549.1 767.06 531.591 785.767 499.191Z" fill="#42E8E0"/>
</g>
<defs>
<linearGradient id="paint0_linear_2001_845" x1="88.0468" y1="268.746" x2="883.221" y2="268.746" gradientUnits="userSpaceOnUse">
<stop stop-color="#BCFFFF"/>
<stop offset="0.15" stop-color="#A3E6F5"/>
<stop offset="0.39" stop-color="#82DCE8"/>
<stop offset="0.61" stop-color="#6AD8DF"/>
<stop offset="0.82" stop-color="#5CD9D9"/>
<stop offset="1" stop-color="#57A1D7"/>
</linearGradient>
<linearGradient id="paint1_linear_2001_845" x1="596.387" y1="381.246" x2="374.426" y2="86.6958" gradientUnits="userSpaceOnUse">
<stop stop-color="#42E8E0"/>
<stop offset="0.11" stop-color="#37B6BF"/>
<stop offset="0.22" stop-color="#2C87A1"/>
<stop offset="0.34" stop-color="#235F87"/>
<stop offset="0.46" stop-color="#1C3F72"/>
<stop offset="0.58" stop-color="#162561"/>
<stop offset="0.71" stop-color="#121355"/>
<stop offset="0.85" stop-color="#10084E"/>
<stop offset="1" stop-color="#0F054C"/>
</linearGradient>
<radialGradient id="paint2_radial_2001_845" cx="0" cy="0" r="1" gradientUnits="userSpaceOnUse" gradientTransform="translate(445.809 227.101) scale(622.383 622.383)">
<stop stop-color="#42E8E0"/>
<stop offset="0.11" stop-color="#37B6BF"/>
<stop offset="0.22" stop-color="#2C87A1"/>
<stop offset="0.34" stop-color="#235F87"/>
<stop offset="0.46" stop-color="#1C3F72"/>
<stop offset="0.58" stop-color="#162561"/>
<stop offset="0.71" stop-color="#121355"/>
<stop offset="0.85" stop-color="#10084E"/>
<stop offset="1" stop-color="#0F054C"/>
</radialGradient>
<linearGradient id="paint3_linear_2001_845" x1="14.06" y1="511.47" x2="125.848" y2="576.006" gradientUnits="userSpaceOnUse">
<stop stop-color="#BCBEFF"/>
<stop offset="0.23" stop-color="#AAADF8"/>
<stop offset="0.68" stop-color="#7C83E5"/>
<stop offset="1" stop-color="#5761D7"/>
</linearGradient>
<linearGradient id="paint4_linear_2001_845" x1="0.0576293" y1="535.847" x2="140.937" y2="535.847" gradientUnits="userSpaceOnUse">
<stop stop-color="#E9E9FD"/>
<stop offset="0.36" stop-color="#D3D2F9"/>
<stop offset="0.71" stop-color="#C5C4F7"/>
<stop offset="1" stop-color="#C0BFF6"/>
</linearGradient>
<linearGradient id="paint5_linear_2001_845" x1="14.0639" y1="423.208" x2="125.852" y2="487.744" gradientUnits="userSpaceOnUse">
<stop stop-color="#BCBEFF"/>
<stop offset="0.23" stop-color="#AAADF8"/>
<stop offset="0.68" stop-color="#7C83E5"/>
<stop offset="1" stop-color="#5761D7"/>
</linearGradient>
<linearGradient id="paint6_linear_2001_845" x1="14.0064" y1="423.211" x2="125.776" y2="487.733" gradientUnits="userSpaceOnUse">
<stop stop-color="#BCEBFF"/>
<stop offset="0.23" stop-color="#AADCF8"/>
<stop offset="0.68" stop-color="#7CB9E5"/>
<stop offset="1" stop-color="#578AD7"/>
</linearGradient>
<linearGradient id="paint7_linear_2001_845" x1="0.0585938" y1="447.587" x2="140.945" y2="447.587" gradientUnits="userSpaceOnUse">
<stop stop-color="#E9F5FD"/>
<stop offset="0.36" stop-color="#D2F0F9"/>
<stop offset="0.71" stop-color="#C4EBF7"/>
<stop offset="1" stop-color="#BFDCF6"/>
</linearGradient>
<linearGradient id="paint8_linear_2001_845" x1="82.3529" y1="145.311" x2="194.141" y2="209.848" gradientUnits="userSpaceOnUse">
<stop stop-color="#BCBEFF"/>
<stop offset="0.23" stop-color="#AAADF8"/>
<stop offset="0.68" stop-color="#7C83E5"/>
<stop offset="1" stop-color="#5761D7"/>
</linearGradient>
<linearGradient id="paint9_linear_2001_845" x1="68.3203" y1="169.718" x2="209.227" y2="169.718" gradientUnits="userSpaceOnUse">
<stop stop-color="#E9E9FD"/>
<stop offset="0.36" stop-color="#D3D2F9"/>
<stop offset="0.71" stop-color="#C5C4F7"/>
<stop offset="1" stop-color="#C0BFF6"/>
</linearGradient>
<linearGradient id="paint10_linear_2001_845" x1="82.349" y1="63.1356" x2="194.137" y2="127.672" gradientUnits="userSpaceOnUse">
<stop stop-color="#BCEBFF"/>
<stop offset="0.23" stop-color="#AADCF8"/>
<stop offset="0.68" stop-color="#7CB9E5"/>
<stop offset="1" stop-color="#578AD7"/>
</linearGradient>
<linearGradient id="paint11_linear_2001_845" x1="68.3164" y1="87.5406" x2="209.223" y2="87.5406" gradientUnits="userSpaceOnUse">
<stop stop-color="#E9F5FD"/>
<stop offset="0.36" stop-color="#D2F0F9"/>
<stop offset="0.71" stop-color="#C4EBF7"/>
<stop offset="1" stop-color="#BFDCF6"/>
</linearGradient>
</defs>
</svg>
