<svg width="1422" height="550" viewBox="0 0 1422 550" fill="none" xmlns="http://www.w3.org/2000/svg">
<g opacity="0.1">
<path d="M985.34 454.026V352.147L1219.61 18.457H1361.21V344.765H1422V454.026H1361.21V549.999H1234.44V454.026H985.34ZM1243.33 157.249L1118.78 344.765H1243.33V157.249Z" fill="url(#paint0_linear_2259_474)"/>
<path d="M498.754 273.154C498.754 188.501 515.064 121.812 547.683 73.0871C580.797 24.3624 633.928 0 707.075 0C780.223 0 833.106 24.3624 865.726 73.0871C898.84 121.812 915.397 188.501 915.397 273.154C915.397 358.791 898.84 425.972 865.726 474.697C833.106 523.422 780.223 547.784 707.075 547.784C633.928 547.784 580.797 523.422 547.683 474.697C515.064 425.972 498.754 358.791 498.754 273.154ZM790.849 273.154C790.849 223.445 785.412 185.302 774.539 158.724C763.666 131.655 741.178 118.121 707.075 118.121C672.973 118.121 650.485 131.655 639.612 158.724C628.739 185.302 623.302 223.445 623.302 273.154C623.302 306.621 625.279 334.429 629.233 356.576C633.187 378.232 641.094 395.95 652.956 409.731C665.312 423.019 683.352 429.663 707.075 429.663C730.799 429.663 748.591 423.019 760.453 409.731C772.809 395.95 780.964 378.232 784.918 356.576C788.872 334.429 790.849 306.621 790.849 273.154Z" fill="url(#paint1_linear_2259_474)"/>
<path d="M0 454.026V352.147L234.269 18.457H375.868V344.765H436.659V454.026H375.868V549.999H249.096V454.026H0ZM257.992 157.249L133.444 344.765H257.992V157.249Z" fill="url(#paint2_linear_2259_474)"/>
</g>
<defs>
<linearGradient id="paint0_linear_2259_474" x1="708.121" y1="-262.079" x2="708.121" y2="845.301" gradientUnits="userSpaceOnUse">
<stop stop-color="#42E8E0"/>
<stop offset="1" stop-color="#1D7669"/>
</linearGradient>
<linearGradient id="paint1_linear_2259_474" x1="708.12" y1="-262.08" x2="708.12" y2="845.3" gradientUnits="userSpaceOnUse">
<stop stop-color="#42E8E0"/>
<stop offset="1" stop-color="#1D7669"/>
</linearGradient>
<linearGradient id="paint2_linear_2259_474" x1="708.12" y1="-262.079" x2="708.12" y2="845.301" gradientUnits="userSpaceOnUse">
<stop stop-color="#42E8E0"/>
<stop offset="1" stop-color="#1D7669"/>
</linearGradient>
</defs>
</svg>
