<svg width="913" height="589" fill="none" xmlns="http://www.w3.org/2000/svg"><path d="M366.761 537.951a39.143 39.143 0 01-19.174-4.438L95.412 387.923a13.533 13.533 0 01-7.834-11.45c0-5.342 4-10.711 10.957-14.737L579.463 84.114c13.066-7.533 32.871-8.218 44.294-1.808l252.174 145.618c5.068 2.903 7.834 6.957 7.834 11.422 0 5.479-3.999 10.738-10.957 14.765L391.825 531.705a51.363 51.363 0 01-25.064 6.246zm-18.709-5.479c10.957 6.383 30.433 5.479 43.198-1.808l480.983-277.567c6.657-3.835 10.464-8.875 10.464-13.833 0-4.054-2.739-7.779-7.314-10.491L623.209 83.183c-10.957-6.383-30.433-5.48-43.198 1.807L99.028 362.667c-6.629 3.835-10.436 8.875-10.436 13.696 0 4.082 2.739 7.807 7.313 10.519l252.147 145.59z" fill="#42E8E0"/><path d="M883.221 172.023l-36.213 6.246L623.486 49.223c-11.231-6.492-30.816-5.67-43.828 1.808L152.09 297.919l-64.016 10.956v22.709c0 4.136 2.41 8.217 7.533 10.957l252.175 145.618c11.203 6.464 30.789 5.643 43.827-1.836L872.51 208.784c6.985-4.027 10.574-9.149 10.683-14.053l.028-22.708z" fill="url(#paint0_linear_2001_845)"/><path d="M347.808 465.422L95.578 319.831c-11.23-6.465-9.806-17.778 3.123-25.256L579.74 16.898c12.93-7.478 32.515-8.217 43.828-1.835L875.66 160.818c11.204 6.465 9.807 17.778-3.15 25.256l-480.955 277.54c-12.957 7.478-32.543 8.272-43.746 1.808z" fill="#24126A"/><path d="M872.51 185.935L391.554 463.612c-12.956 7.478-32.542 8.217-43.827 1.807L95.58 319.829a13.694 13.694 0 01-7.451-9.56c-.685 4.657 1.726 9.204 7.45 12.491l252.175 145.618c11.204 6.464 30.789 5.643 43.828-1.836L872.51 188.866c7.752-4.465 11.341-10.327 10.574-15.696-.658 4.492-4.082 9.094-10.574 12.765z" fill="#fff"/><path opacity=".51" d="M348.3 459.774L105.11 319.333c-10.957-6.273-9.477-17.202 3.041-24.434L580.177 22.427c12.546-7.232 31.501-8.026 42.348-1.753l243.19 140.441c10.957 6.273 9.505 17.23-3.041 24.461L390.649 458.021c-12.546 7.232-31.501 8.026-42.349 1.753z" fill="#2D4F6E"/><path style="mix-blend-mode:lighten" opacity=".8" d="M366.756 458.493a38.13 38.13 0 01-18.764-4.301L104.803 313.751a13.417 13.417 0 01-7.725-11.313c0-5.259 3.917-10.546 10.765-14.49L579.787 15.476c12.737-7.342 32.076-8.218 43.116-1.754l243.189 140.469a13.36 13.36 0 017.725 11.285c0 5.26-3.917 10.546-10.765 14.518L391.026 452.439a50.243 50.243 0 01-24.27 6.054zm-17.969-5.67c10.601 6.135 29.228 5.341 41.527-1.754l471.971-272.444c6.327-3.671 9.97-8.465 9.97-13.149a11.915 11.915 0 00-6.93-9.943L622.136 15.093c-10.629-6.137-29.256-5.48-41.555 1.752L108.528 289.317c-6.328 3.644-9.97 8.437-9.97 13.121a11.915 11.915 0 006.93 9.944l243.299 140.441z" fill="url(#paint1_linear_2001_845)"/><g opacity=".3"><path style="mix-blend-mode:lighten" opacity=".5" d="M348.292 453.499L105.103 313.058c-10.957-6.272-9.478-17.202 3.04-24.434L580.169 16.152c12.546-7.231 31.501-7.998 42.349-1.753L865.707 154.84c10.957 6.273 9.505 17.23-3.04 24.461L390.641 451.746c-12.546 7.232-31.501 8.026-42.349 1.753z" fill="url(#paint2_radial_2001_845)"/><mask id="mask0_2001_845" style="mask-type:luminance" maskUnits="userSpaceOnUse" x="97" y="10" width="777" height="448"><path d="M348.288 453.495l-243.189-140.44c-10.957-6.273-9.478-17.203 3.04-24.434L580.165 16.148c12.546-7.231 31.501-7.998 42.349-1.753l243.189 140.441c10.957 6.273 9.505 17.23-3.04 24.462L390.637 451.742c-12.546 7.232-31.501 8.026-42.349 1.753z" fill="#fff"/></mask><g mask="url(#mask0_2001_845)"><path d="M703.951 316.559l-3.507-.466a13.694 13.694 0 00-1.232-.767L428.63 159.19c-7.013-4.027-19.175-3.534-27.393 1.123l-157.752 91.052a15.743 15.743 0 00-4.822 4.027l-1.862-.548v5.478a8.217 8.217 0 004.711 6.794l270.61 156.136c6.985 4.054 19.174 3.534 27.392-1.123l157.863-91.134c4.519-2.739 6.765-5.972 6.656-9.122l-.082-5.314z" fill="#9FFFF8"/><path d="M512.124 417.858L241.515 261.721c-6.985-4.054-6.109-11.094 1.972-15.75l157.862-91.162c8.081-4.657 20.271-5.15 27.393-1.123l270.582 156.136c7.012 4.027 6.136 10.957-1.945 15.751l-158.054 91.162c-7.999 4.657-20.216 5.177-27.201 1.123z" fill="#42E8E0"/><path d="M333.694 275.555l-33.419-19.174c-3.095-1.781-2.739-4.931.877-6.986a13.5 13.5 0 0112.135-.52l33.391 19.312c3.123 1.78 2.739 4.903-.849 6.985a13.496 13.496 0 01-12.135.383zm61.656 35.583l-33.419-19.175c-3.123-1.808-2.739-4.93.877-7.012a13.505 13.505 0 0112.134-.493l33.392 19.174c3.122 1.808 2.739 4.931-.877 7.013a13.532 13.532 0 01-12.107.493zm61.631 35.585l-33.391-19.174c-3.123-1.781-2.739-4.931.849-6.985a13.493 13.493 0 0112.135-.521l33.419 19.175c3.095 1.808 2.739 4.93-.877 7.012a13.426 13.426 0 01-12.135.493zm61.666 35.608l-33.418-19.174c-3.096-1.808-2.74-4.931.876-7.013a13.418 13.418 0 0112.135-.493l33.419 19.175c3.095 1.78 2.739 4.93-.877 6.985a13.5 13.5 0 01-12.135.52z" fill="#fff"/></g></g><path opacity=".4" d="M813.782 178.157a14.739 14.739 0 01-13.45 0c-3.698-2.137-3.698-5.616 0-7.752a14.895 14.895 0 0113.45 0c3.698 2.136 3.698 5.615 0 7.752zm-51.308-37.368l26.297 15.175c3.232 1.863 2.739 5.095-.877 7.259a14.014 14.014 0 01-12.545.521l-26.325-15.203c-3.204-1.863-2.739-5.095.904-7.232a13.872 13.872 0 0112.546-.52zm-147.89-87.215l26.324 15.203c3.204 1.863 2.739 5.095-.904 7.231a13.863 13.863 0 01-12.546.52l-26.324-15.175c-3.205-1.862-2.739-5.094.904-7.258a14.022 14.022 0 0112.546-.52z" fill="#24126A"/><path d="M813.782 168.735a14.907 14.907 0 01-13.45 0c-3.698-2.137-3.698-5.479 0-7.752a14.895 14.895 0 0113.45 0c3.698 2.136 3.698 5.615 0 7.752zm-51.308-37.391l26.297 15.202c3.232 1.863 2.739 5.095-.877 7.232a13.851 13.851 0 01-12.545.52l-26.325-15.175c-3.204-1.863-2.739-5.095.904-7.259a14.031 14.031 0 0112.546-.52zM614.584 44.15l26.324 15.203c3.204 1.835 2.739 5.095-.904 7.232a13.944 13.944 0 01-12.546.52l-26.324-15.203c-3.205-1.835-2.739-5.095.904-7.231a13.943 13.943 0 0112.546-.52z" fill="#42E8E0"/><g opacity=".3"><path d="M140.942 548.121v-12.272l-3.397-1.89c-.959 5.807-7.78 9.615-13.477 10.409l-38.815 22.708-17.066 6.109-53.963-27.913 1.233-.712c-4.602-2.164-7.095-7.095-9.615-11.615l-3.616 2.192-2.163.602v12.601a8.054 8.054 0 004.738 6.629l54.183 31.282a25.426 25.426 0 0023.01 0l54.181-31.282a8.223 8.223 0 004.767-6.52v-.328z" fill="url(#paint3_linear_2001_845)"/><path opacity=".3" d="M124.064 544.313l-38.815 22.708-14.765 5.315v16.599a23.424 23.424 0 0011.505-2.739l54.182-31.282a8.223 8.223 0 004.767-6.519v-12.601l-3.096-1.726h-.328c-1.069 5.753-7.807 9.505-13.45 10.245z" fill="#0F054C"/><path d="M58.979 573.786L4.797 542.504c-6.328-3.671-6.328-9.643 0-13.286l54.182-31.282a25.425 25.425 0 0123.01 0l54.181 31.282c6.355 3.643 6.355 9.615 0 13.286l-54.291 31.282a25.584 25.584 0 01-22.9 0z" fill="url(#paint4_linear_2001_845)"/><path d="M58.979 573.786L4.797 542.504c-6.328-3.671-6.328-9.643 0-13.286l54.182-31.282a25.425 25.425 0 0123.01 0l54.181 31.282c6.355 3.643 6.355 9.615 0 13.286l-54.291 31.282a25.584 25.584 0 01-22.9 0z" fill="#0F054C" opacity=".3"/></g><path d="M70.489 528.26a20.56 20.56 0 01-10.19-2.438L6.117 494.54a6.523 6.523 0 01-4.394-6.164 6.515 6.515 0 014.394-6.163l54.21-31.282a22.518 22.518 0 0120.407 0l54.182 31.282a6.517 6.517 0 014.394 6.163 6.518 6.518 0 01-4.394 6.164l-54.182 31.282a20.75 20.75 0 01-10.245 2.438zm0-78.836a19.81 19.81 0 00-9.724 2.329L6.583 483.035a5.476 5.476 0 00-3.066 8.758 5.482 5.482 0 003.066 1.925l54.182 31.419a21.42 21.42 0 0019.476 0l54.182-31.282a5.481 5.481 0 004.261-5.342 5.478 5.478 0 00-4.261-5.341l-54.182-31.419a19.826 19.826 0 00-9.752-2.329z" fill="#42E8E0"/><path opacity=".4" d="M140.945 476.376v-18.572l-3.396-1.89c-.959 5.807-7.78 9.615-13.477 10.409l-38.815 22.708-17.066 6.109-53.963-27.886 1.233-.739c-4.602-2.164-7.095-7.095-9.615-11.587l-3.616 2.164-2.164.602v18.874a8.023 8.023 0 004.74 6.629l54.181 31.282a25.426 25.426 0 0023.01 0l54.182-31.282a8.22 8.22 0 004.766-6.52v-.301z" fill="#42E8E0"/><path d="M140.945 459.886v-12.299l-3.396-1.89c-.959 5.807-7.78 9.615-13.477 10.409l-38.815 22.708-17.066 6.136-53.963-27.912 1.233-.74c-4.602-2.164-7.095-7.095-9.615-11.587l-3.616 2.164-2.164.603v12.6a8.03 8.03 0 004.74 6.629l54.181 31.282a25.414 25.414 0 0023.01 0l54.182-31.282a8.211 8.211 0 004.766-6.519v-.329.027z" fill="url(#paint5_linear_2001_845)"/><path d="M140.945 459.886v-12.299l-3.396-1.89c-.959 5.807-7.78 9.615-13.477 10.409l-38.815 22.708-17.066 6.136-53.963-27.912 1.233-.74c-4.602-2.164-7.095-7.095-9.615-11.587l-3.616 2.164-2.164.603v12.6a8.03 8.03 0 004.74 6.629l54.181 31.282a25.414 25.414 0 0023.01 0l54.182-31.282a8.211 8.211 0 004.766-6.519v-.329.027z" fill="url(#paint6_linear_2001_845)"/><path opacity=".3" d="M124.072 456.106l-38.815 22.708-14.765 5.479v16.599a23.448 23.448 0 0011.505-2.739l54.182-31.282a8.211 8.211 0 004.766-6.519v-12.628l-3.095-1.726h-.329c-1.068 5.588-7.806 9.341-13.449 10.108z" fill="#0F054C"/><path d="M58.986 485.522L4.804 454.24c-6.327-3.671-6.327-9.615 0-13.285l54.182-31.283a25.425 25.425 0 0123.01 0l54.182 31.283c6.355 3.67 6.355 9.614 0 13.285l-54.291 31.282a25.426 25.426 0 01-22.9 0z" fill="url(#paint7_linear_2001_845)"/><path d="M70.489 479.854a18.597 18.597 0 01-9.204-2.218l-42.403-24.434a5.947 5.947 0 01-2.868-9.031 5.947 5.947 0 012.868-2.173l42.348-24.434a20.247 20.247 0 0118.435 0l42.349 24.434a5.945 5.945 0 010 11.204l-42.349 24.434a18.789 18.789 0 01-9.176 2.218zm0-63.577a17.849 17.849 0 00-8.738 2.109l-42.349 24.571a5.01 5.01 0 00-2.533 7.743 5.016 5.016 0 002.533 1.817l42.321 24.434a19.318 19.318 0 0017.504 0l42.321-24.434a5.014 5.014 0 000-9.56l-42.403-24.653a17.875 17.875 0 00-8.656-2.027z" fill="#5351AF"/><path d="M136.176 454.241l-54.292 31.282a25.414 25.414 0 01-23.01 0L4.692 454.241a8.545 8.545 0 01-4.684-5.889 7.67 7.67 0 004.684 7.423l54.182 31.282a25.426 25.426 0 0023.01 0l54.182-31.282a7.646 7.646 0 004.712-7.423 8.52 8.52 0 01-4.602 5.889z" fill="#fff"/><g opacity=".3"><path d="M209.234 181.99v-12.272l-3.396-1.89c-.959 5.78-7.78 9.615-13.477 10.409l-38.815 22.681-16.874 6.136-54.073-27.913 1.233-.712c-4.63-2.164-7.095-7.122-9.615-11.615l-3.643 2.164-2.164.603v12.601a8.218 8.218 0 004.766 6.656l54.183 31.282a25.581 25.581 0 0023.009 0l54.182-31.282a8.215 8.215 0 004.767-6.547v-.301h-.083z" fill="url(#paint8_linear_2001_845)"/><path opacity=".3" d="M192.349 178.239l-38.815 22.681-14.764 5.478v16.6a23.807 23.807 0 0011.504-2.739l54.183-31.283a8.21 8.21 0 004.766-6.546v-12.573l-3.096-1.726h-.328c-1.069 5.561-7.807 9.313-13.45 10.108z" fill="#0F054C"/><path d="M127.269 207.629l-54.182-31.282c-6.355-3.67-6.355-9.614 0-13.285l54.182-31.282a25.414 25.414 0 0123.009 0l54.183 31.282c6.355 3.671 6.355 9.642 0 13.285l-54.1 31.282a25.424 25.424 0 01-23.092 0z" fill="url(#paint9_linear_2001_845)"/><path d="M127.269 207.629l-54.182-31.282c-6.355-3.67-6.355-9.614 0-13.285l54.182-31.282a25.414 25.414 0 0123.009 0l54.183 31.282c6.355 3.671 6.355 9.642 0 13.285l-54.1 31.282a25.424 25.424 0 01-23.092 0z" fill="#0F054C" opacity=".3"/></g><path d="M138.777 168.209a21.025 21.025 0 01-10.217-2.438l-54.182-31.282a6.546 6.546 0 010-12.354l54.072-31.282a22.573 22.573 0 0120.435 0l54.182 31.282a6.545 6.545 0 013.172 9.963 6.543 6.543 0 01-3.172 2.391l-54.072 31.282a21.028 21.028 0 01-10.218 2.438zm0-78.862a19.72 19.72 0 00-9.724 2.328l-54.182 31.282a5.646 5.646 0 00-3.865 5.355 5.64 5.64 0 003.865 5.355l54.182 31.283a21.587 21.587 0 0019.476 0l54.182-31.283a5.636 5.636 0 003.864-5.355 5.643 5.643 0 00-3.864-5.355l-54.182-31.282a19.835 19.835 0 00-9.752-2.328z" fill="#42E8E0"/><path opacity=".4" d="M209.23 116.306v-18.49l-3.396-1.89c-.959 5.78-7.78 9.614-13.477 10.409l-38.815 22.681-16.874 6.081-54.073-27.913 1.233-.74c-4.63-2.136-7.094-7.094-9.615-11.587l-3.643 2.164-2.164.603v18.873a8.216 8.216 0 004.766 6.657l54.183 31.282a25.581 25.581 0 0023.009 0l54.182-31.282a8.223 8.223 0 004.767-6.547v-.301h-.083z" fill="#42E8E0"/><path d="M209.23 99.814V87.542l-3.396-1.89c-.959 5.78-7.78 9.615-13.477 10.41l-38.815 22.68-16.874 6.136-54.073-27.913 1.233-.712c-4.63-2.164-7.094-7.122-9.615-11.614l-3.643 2.164-2.164.602v12.601a8.22 8.22 0 004.766 6.656l54.183 31.282a25.581 25.581 0 0023.009 0l54.182-31.282a8.214 8.214 0 004.767-6.547v-.301h-.083z" fill="url(#paint10_linear_2001_845)"/><path opacity=".3" d="M192.361 96.063l-38.815 22.681-14.765 5.478v16.6a23.809 23.809 0 0011.505-2.739l54.182-31.282a8.223 8.223 0 004.766-6.547V87.681l-3.095-1.726h-.329c-1.068 5.56-7.806 9.314-13.449 10.108z" fill="#469EDE"/><path d="M127.265 125.452L73.083 94.17c-6.355-3.671-6.355-9.615 0-13.286l54.182-31.282a25.42 25.42 0 0123.009 0l54.183 31.282c6.355 3.67 6.355 9.642 0 13.285l-54.1 31.283a25.423 25.423 0 01-23.092 0z" fill="url(#paint11_linear_2001_845)"/><path d="M138.778 119.726a18.786 18.786 0 01-9.232-2.219l-42.184-24.38a5.945 5.945 0 010-11.203l42.321-24.434a20.492 20.492 0 0118.463 0l42.321 24.434a5.943 5.943 0 012.867 9.03 5.943 5.943 0 01-2.867 2.174l-42.321 24.434a18.8 18.8 0 01-9.368 2.164zm0-63.55a17.782 17.782 0 00-8.739 2.081L87.691 82.691a5.013 5.013 0 000 9.56l42.348 24.434a19.31 19.31 0 0017.504 0l42.321-24.352a5.834 5.834 0 003.479-4.766 5.908 5.908 0 00-3.479-4.793l-42.239-24.462a17.884 17.884 0 00-8.847-2.082v-.054z" fill="#5351AF"/><path d="M204.465 94.17l-54.1 31.283a25.422 25.422 0 01-23.009 0L73.174 94.171a8.602 8.602 0 01-4.712-5.862 7.724 7.724 0 004.712 7.396l54.182 31.282a25.426 25.426 0 0023.009 0l54.183-31.282a7.695 7.695 0 004.711-7.396 8.551 8.551 0 01-4.794 5.862z" fill="#fff"/><path opacity=".4" d="M502.818 343.987L292.609 222.611c-5.478-3.122-4.739-8.601 1.507-12.217l122.636-70.809c6.272-3.616 15.778-3.999 21.201-.877l210.21 121.376c5.478 3.123 4.738 8.601-1.534 12.217L523.993 343.11c-6.273 3.616-15.751 3.972-21.175.877z" fill="#24126A"/><path d="M703.962 165.689l-3.506-.465-1.232-.795L428.641 8.293c-7.012-4.054-19.174-3.534-27.392 1.123L243.496 100.55a16.192 16.192 0 00-4.821 4.054l-1.863-.548v5.479a8.221 8.221 0 004.712 6.793l270.609 156.137c6.986 4.027 19.175 3.534 27.393-1.123l157.862-91.162c4.52-2.602 6.766-5.944 6.657-9.094l-.083-5.397z" fill="#9FFFF8"/><path d="M512.136 266.988l-270.61-156.136c-6.985-4.027-6.108-10.957 1.973-15.75L401.361 3.856c8.081-4.657 20.271-5.177 27.393-1.123L699.336 158.87c7.012 4.054 6.136 11.094-1.945 15.75l-158.054 91.244c-7.999 4.657-20.216 5.15-27.201 1.123z" fill="#42E8E0"/><path d="M555.795 256.384L259.875 85.538l31.419-18.134 295.92 170.847-31.419 18.133z" fill="#24126A"/><g opacity=".1"><path d="M694.844 501.958c0-30.569 21.448-67.714 47.882-82.971 13.258-7.643 25.256-8.355 33.939-3.315l9.039 5.314-2.739.247c4.766 5.835 7.56 14.463 7.56 25.42 0 30.57-21.448 67.714-47.909 82.972-9.094 5.259-17.586 7.231-24.817 6.327l.191 2.438-9.176-5.478h-.137l-.356-.219c-8.3-5.095-13.477-15.778-13.477-30.735z" fill="#9FFFF8"/><path d="M785.767 499.183c18.706-32.4 18.704-67.422-.005-78.224-18.709-10.802-49.04 6.707-67.747 39.108-18.706 32.4-18.704 67.422.005 78.224 18.709 10.801 49.04-6.708 67.747-39.108z" fill="#42E8E0"/></g><path opacity=".2" d="M748.771 571.838c-41.91 0-83.848-9.232-115.76-27.667-31.035-17.887-48.101-41.746-48.101-67.111 0-25.365 17.066-49.306 48.101-67.139 63.852-36.843 167.724-36.843 231.575 0 31.009 17.915 48.102 41.746 48.102 67.139 0 25.393-17.093 49.306-48.102 67.111-31.939 18.435-73.877 27.667-115.815 27.667zm0-188.624c-41.773 0-83.519 9.176-115.322 27.529-30.679 17.75-47.553 41.28-47.553 66.317 0 25.037 16.929 48.567 47.636 66.289 63.577 36.706 167.093 36.706 230.616 0 30.707-17.722 47.636-41.28 47.636-66.289s-16.901-48.567-47.636-66.317c-31.72-18.353-73.603-27.529-115.349-27.529h-.028z" fill="#42E8E0"/><path d="M748.806 536.091c-26.05 0-52.046-5.725-71.933-17.175-19.174-11.121-29.912-25.968-29.912-41.773 0-15.806 10.628-30.652 29.94-41.801 39.637-22.873 104.091-22.873 143.81 0 19.174 11.149 29.912 25.995 29.912 41.801 0 15.805-10.628 30.652-29.912 41.773-19.832 11.368-45.8 17.175-71.905 17.175zm0-116.965c-25.886 0-51.744 5.67-71.439 17.038-18.983 10.957-29.447 25.529-29.447 41.088 0 15.559 10.464 29.995 29.447 40.952 39.39 22.763 103.46 22.763 142.851 0 19.01-10.957 29.447-25.502 29.447-40.952 0-15.449-10.437-30.131-29.447-41.088-19.695-11.45-45.554-17.12-71.412-17.12v.082z" fill="#42E8E0"/><mask id="mask1_2001_845" style="mask-type:luminance" maskUnits="userSpaceOnUse" x="673" y="304" width="151" height="204"><path d="M673.812 489.854l30.105 17.339 119.896-69.22V304.846L673.812 391.46v98.394z" fill="#fff"/></mask><g mask="url(#mask1_2001_845)"><path d="M694.844 501.966c0-30.57 21.448-67.714 47.882-82.971 13.258-7.643 25.256-8.355 33.939-3.315l9.039 5.314-2.739.247c4.766 5.834 7.56 14.463 7.56 25.42 0 30.57-21.448 67.714-47.909 82.972-9.094 5.259-17.586 7.231-24.817 6.327l.191 2.438-9.176-5.478h-.137l-.356-.219c-8.3-5.095-13.477-15.779-13.477-30.735z" fill="#9FFFF8"/><path d="M785.767 499.191c18.706-32.4 18.704-67.422-.005-78.224-18.709-10.802-49.04 6.707-67.747 39.107-18.706 32.401-18.704 67.423.005 78.224 18.709 10.802 49.04-6.707 67.747-39.107z" fill="#42E8E0"/></g><defs><linearGradient id="paint0_linear_2001_845" x1="88.047" y1="268.746" x2="883.221" y2="268.746" gradientUnits="userSpaceOnUse"><stop stop-color="#BCFFFF"/><stop offset=".15" stop-color="#A3E6F5"/><stop offset=".39" stop-color="#82DCE8"/><stop offset=".61" stop-color="#6AD8DF"/><stop offset=".82" stop-color="#5CD9D9"/><stop offset="1" stop-color="#57A1D7"/></linearGradient><linearGradient id="paint1_linear_2001_845" x1="596.387" y1="381.246" x2="374.426" y2="86.696" gradientUnits="userSpaceOnUse"><stop stop-color="#42E8E0"/><stop offset=".11" stop-color="#37B6BF"/><stop offset=".22" stop-color="#2C87A1"/><stop offset=".34" stop-color="#235F87"/><stop offset=".46" stop-color="#1C3F72"/><stop offset=".58" stop-color="#162561"/><stop offset=".71" stop-color="#121355"/><stop offset=".85" stop-color="#10084E"/><stop offset="1" stop-color="#0F054C"/></linearGradient><linearGradient id="paint3_linear_2001_845" x1="14.06" y1="511.47" x2="125.848" y2="576.006" gradientUnits="userSpaceOnUse"><stop stop-color="#BCBEFF"/><stop offset=".23" stop-color="#AAADF8"/><stop offset=".68" stop-color="#7C83E5"/><stop offset="1" stop-color="#5761D7"/></linearGradient><linearGradient id="paint4_linear_2001_845" x1=".058" y1="535.847" x2="140.937" y2="535.847" gradientUnits="userSpaceOnUse"><stop stop-color="#E9E9FD"/><stop offset=".36" stop-color="#D3D2F9"/><stop offset=".71" stop-color="#C5C4F7"/><stop offset="1" stop-color="#C0BFF6"/></linearGradient><linearGradient id="paint5_linear_2001_845" x1="14.064" y1="423.208" x2="125.852" y2="487.744" gradientUnits="userSpaceOnUse"><stop stop-color="#BCBEFF"/><stop offset=".23" stop-color="#AAADF8"/><stop offset=".68" stop-color="#7C83E5"/><stop offset="1" stop-color="#5761D7"/></linearGradient><linearGradient id="paint6_linear_2001_845" x1="14.006" y1="423.211" x2="125.776" y2="487.733" gradientUnits="userSpaceOnUse"><stop stop-color="#BCEBFF"/><stop offset=".23" stop-color="#AADCF8"/><stop offset=".68" stop-color="#7CB9E5"/><stop offset="1" stop-color="#578AD7"/></linearGradient><linearGradient id="paint7_linear_2001_845" x1=".059" y1="447.587" x2="140.945" y2="447.587" gradientUnits="userSpaceOnUse"><stop stop-color="#E9F5FD"/><stop offset=".36" stop-color="#D2F0F9"/><stop offset=".71" stop-color="#C4EBF7"/><stop offset="1" stop-color="#BFDCF6"/></linearGradient><linearGradient id="paint8_linear_2001_845" x1="82.353" y1="145.311" x2="194.141" y2="209.848" gradientUnits="userSpaceOnUse"><stop stop-color="#BCBEFF"/><stop offset=".23" stop-color="#AAADF8"/><stop offset=".68" stop-color="#7C83E5"/><stop offset="1" stop-color="#5761D7"/></linearGradient><linearGradient id="paint9_linear_2001_845" x1="68.32" y1="169.718" x2="209.227" y2="169.718" gradientUnits="userSpaceOnUse"><stop stop-color="#E9E9FD"/><stop offset=".36" stop-color="#D3D2F9"/><stop offset=".71" stop-color="#C5C4F7"/><stop offset="1" stop-color="#C0BFF6"/></linearGradient><linearGradient id="paint10_linear_2001_845" x1="82.349" y1="63.136" x2="194.137" y2="127.672" gradientUnits="userSpaceOnUse"><stop stop-color="#BCEBFF"/><stop offset=".23" stop-color="#AADCF8"/><stop offset=".68" stop-color="#7CB9E5"/><stop offset="1" stop-color="#578AD7"/></linearGradient><linearGradient id="paint11_linear_2001_845" x1="68.316" y1="87.541" x2="209.223" y2="87.541" gradientUnits="userSpaceOnUse"><stop stop-color="#E9F5FD"/><stop offset=".36" stop-color="#D2F0F9"/><stop offset=".71" stop-color="#C4EBF7"/><stop offset="1" stop-color="#BFDCF6"/></linearGradient><radialGradient id="paint2_radial_2001_845" cx="0" cy="0" r="1" gradientUnits="userSpaceOnUse" gradientTransform="translate(445.809 227.101) scale(622.383)"><stop stop-color="#42E8E0"/><stop offset=".11" stop-color="#37B6BF"/><stop offset=".22" stop-color="#2C87A1"/><stop offset=".34" stop-color="#235F87"/><stop offset=".46" stop-color="#1C3F72"/><stop offset=".58" stop-color="#162561"/><stop offset=".71" stop-color="#121355"/><stop offset=".85" stop-color="#10084E"/><stop offset="1" stop-color="#0F054C"/></radialGradient></defs></svg>