<svg width="1422" height="550" fill="none" xmlns="http://www.w3.org/2000/svg"><g opacity=".1"><path d="M985.34 454.026V352.147l234.27-333.69h141.6v326.308H1422v109.261h-60.79v95.973h-126.77v-95.973h-249.1zm257.99-296.777l-124.55 187.516h124.55V157.249z" fill="url(#paint0_linear_2259_474)"/><path d="M498.754 273.154c0-84.653 16.31-151.342 48.929-200.067C580.797 24.362 633.928 0 707.075 0c73.148 0 126.031 24.362 158.651 73.087 33.114 48.725 49.671 115.414 49.671 200.067 0 85.637-16.557 152.818-49.671 201.543-32.62 48.725-85.503 73.087-158.651 73.087-73.147 0-126.278-24.362-159.392-73.087-32.619-48.725-48.929-115.906-48.929-201.543zm292.095 0c0-49.709-5.437-87.852-16.31-114.43-10.873-27.069-33.361-40.603-67.464-40.603-34.102 0-56.59 13.534-67.463 40.603-10.873 26.578-16.31 64.721-16.31 114.43 0 33.467 1.977 61.275 5.931 83.422 3.954 21.656 11.861 39.374 23.723 53.155 12.356 13.288 30.396 19.932 54.119 19.932 23.724 0 41.516-6.644 53.378-19.932 12.356-13.781 20.511-31.499 24.465-53.155 3.954-22.147 5.931-49.955 5.931-83.422z" fill="url(#paint1_linear_2259_474)"/><path d="M0 454.026V352.147l234.269-333.69h141.599v326.308h60.791v109.261h-60.791v95.973H249.096v-95.973H0zm257.992-296.777L133.444 344.765h124.548V157.249z" fill="url(#paint2_linear_2259_474)"/></g><defs><linearGradient id="paint0_linear_2259_474" x1="708.121" y1="-262.079" x2="708.121" y2="845.301" gradientUnits="userSpaceOnUse"><stop stop-color="#42E8E0"/><stop offset="1" stop-color="#1D7669"/></linearGradient><linearGradient id="paint1_linear_2259_474" x1="708.12" y1="-262.08" x2="708.12" y2="845.3" gradientUnits="userSpaceOnUse"><stop stop-color="#42E8E0"/><stop offset="1" stop-color="#1D7669"/></linearGradient><linearGradient id="paint2_linear_2259_474" x1="708.12" y1="-262.079" x2="708.12" y2="845.301" gradientUnits="userSpaceOnUse"><stop stop-color="#42E8E0"/><stop offset="1" stop-color="#1D7669"/></linearGradient></defs></svg>